<svg width="226" height="355" viewBox="0 0 226 355" fill="none" xmlns="http://www.w3.org/2000/svg">
<rect width="128" height="258" rx="64" fill="#1A2537"/>
<path d="M47.8 180C47.5013 174.069 47.1813 168.16 46.84 162.272C46.5413 156.341 46.2213 150.432 45.88 144.544C45.5813 138.613 45.2827 132.683 44.984 126.752C49.72 126.581 52.984 126.133 54.776 125.408C56.6107 124.64 57.528 123.424 57.528 121.76C57.528 120.224 56.5467 119.243 54.584 118.816C52.664 118.389 49.336 118.347 44.6 118.688C44.472 117.579 44.3653 116.469 44.28 115.36C44.2373 114.208 44.216 113.099 44.216 112.032C46.9467 111.819 49.144 111.499 50.808 111.072C52.472 110.603 53.688 110.005 54.456 109.28C55.224 108.512 55.608 107.595 55.608 106.528C55.608 104.821 54.4987 103.733 52.28 103.264C50.0613 102.795 47.16 102.731 43.576 103.072C43.448 102.219 43.3627 101.387 43.32 100.576C43.32 99.7227 43.32 98.8907 43.32 98.08C43.32 95.392 43.96 93.5147 45.24 92.448C46.5627 91.3813 48.696 90.784 51.64 90.656C57.912 90.4 64.0133 90.4 69.944 90.656C75.8747 90.8693 81.4213 91.3387 86.584 92.064C89.6133 92.448 91.8107 93.28 93.176 94.56C94.584 95.84 95.288 97.3547 95.288 99.104C95.288 101.536 94.4987 103.349 92.92 104.544C91.384 105.696 89.5707 106.699 87.48 107.552C84.28 108.832 81.2933 109.835 78.52 110.56C75.7467 111.243 73.1013 112.117 70.584 113.184C69.5173 113.611 68.6 114.037 67.832 114.464C67.1067 114.891 66.488 115.36 65.976 115.872C65.464 116.427 65.0587 117.067 64.76 117.792C64.504 118.517 64.312 119.456 64.184 120.608C64.056 121.675 63.9707 122.741 63.928 123.808C63.928 124.832 63.928 125.899 63.928 127.008C63.928 128.459 64.2053 129.504 64.76 130.144C65.3147 130.741 66.5733 130.976 68.536 130.848C71.352 130.635 74.168 130.315 76.984 129.888C79.8 129.461 82.616 129.184 85.432 129.056C87.2667 128.971 88.632 129.397 89.528 130.336C90.424 131.275 90.872 132.341 90.872 133.536C90.872 134.645 90.488 135.733 89.72 136.8C88.952 137.824 87.8213 138.443 86.328 138.656C83 139.04 79.8 139.275 76.728 139.36C73.656 139.403 70.584 139.637 67.512 140.064C65.72 140.235 64.7387 140.875 64.568 141.984C64.3973 143.051 65.0373 143.883 66.488 144.48C68.536 145.333 70.5627 146.016 72.568 146.528C74.5733 147.04 76.6 147.744 78.648 148.64C79.7573 149.109 80.568 149.771 81.08 150.624C81.592 151.477 81.848 152.373 81.848 153.312C81.848 154.848 81.1867 156.192 79.864 157.344C78.584 158.453 76.8133 158.624 74.552 157.856C72.7173 157.216 70.9893 156.491 69.368 155.68C67.7893 154.869 66.104 154.187 64.312 153.632C62.52 153.035 61.1547 152.992 60.216 153.504C59.32 153.973 58.808 155.083 58.68 156.832C58.3813 160.544 58.232 164.384 58.232 168.352C58.2747 172.32 58.1253 176.203 57.784 180C57.6987 181.109 57.4213 182.005 56.952 182.688C56.4827 183.413 55.8853 183.925 55.16 184.224C54.4347 184.565 53.6453 184.736 52.792 184.736C51.4693 184.736 50.3173 184.352 49.336 183.584C48.3547 182.859 47.8427 181.664 47.8 180ZM69.304 107.04C70.84 107.04 72.056 106.507 72.952 105.44C73.848 104.373 74.296 102.987 74.296 101.28C74.296 99.9147 73.8267 98.784 72.888 97.888C71.992 96.992 70.968 96.544 69.816 96.544C67.64 96.544 66.0827 96.992 65.144 97.888C64.248 98.7413 63.8 100 63.8 101.664C63.8 103.243 64.248 104.544 65.144 105.568C66.0827 106.549 67.4693 107.04 69.304 107.04Z" fill="white"/>
<rect x="98" y="97" width="128" height="258" rx="64" fill="white"/>
<path d="M133.216 270.6C132.576 264.755 132 258.355 131.488 251.4C131.019 244.403 130.656 237.427 130.4 230.472C130.272 227.059 130.251 223.752 130.336 220.552C130.421 217.352 130.613 214.536 130.912 212.104C134.368 213.128 137.035 213.597 138.912 213.512C140.789 213.384 142.005 212.659 142.56 211.336C143.2 209.8 142.816 208.328 141.408 206.92C140.043 205.469 137.056 203.955 132.448 202.376C133.216 200.499 134.24 198.579 135.52 196.616C136.843 194.653 138.208 193.075 139.616 191.88C142.176 195.379 144.245 197.597 145.824 198.536C147.445 199.432 148.96 199.347 150.368 198.28C151.733 197.299 152.096 195.656 151.456 193.352C150.816 191.005 149.6 188.68 147.808 186.376C149.557 185.608 151.925 184.989 154.912 184.52C157.899 184.051 160.48 183.816 162.656 183.816C168.587 183.816 173.749 184.456 178.144 185.736C182.539 186.973 186.187 188.808 189.088 191.24C191.989 193.629 194.144 196.531 195.552 199.944C197.003 203.315 197.728 207.155 197.728 211.464C197.728 216.2 196.789 220.36 194.912 223.944C193.035 227.528 190.432 230.344 187.104 232.392C183.776 234.397 179.936 235.4 175.584 235.4C171.915 235.4 168.821 234.76 166.304 233.48C163.829 232.157 161.952 230.344 160.672 228.04C159.435 225.736 158.816 223.069 158.816 220.04C158.816 215.731 160.096 212.296 162.656 209.736C165.216 207.133 168.416 205.832 172.256 205.832C175.371 205.832 177.824 206.6 179.616 208.136C181.451 209.672 182.368 211.443 182.368 213.448C182.368 214.6 182.069 215.539 181.472 216.264C180.917 216.947 180.064 217.288 178.912 217.288C178.144 217.288 177.547 217.139 177.12 216.84C176.736 216.499 176.373 216.115 176.032 215.688C175.733 215.219 175.328 214.835 174.816 214.536C174.304 214.195 173.536 214.024 172.512 214.024C171.189 214.024 170.187 214.536 169.504 215.56C168.864 216.584 168.544 217.779 168.544 219.144C168.544 221.363 169.248 223.219 170.656 224.712C172.064 226.205 173.877 226.952 176.096 226.952C179.808 226.952 182.731 225.587 184.864 222.856C187.04 220.083 188.128 216.499 188.128 212.104C188.128 207.155 186.784 203.144 184.096 200.072C181.451 197 177.717 195.464 172.896 195.464C169.056 195.464 165.621 196.445 162.592 198.408C159.605 200.328 157.067 203.144 154.976 206.856C152.928 210.568 151.392 215.048 150.368 220.296C149.515 224.904 148.896 228.573 148.512 231.304C148.171 233.992 148.064 236.061 148.192 237.512C148.363 238.963 148.747 240.051 149.344 240.776C149.941 241.501 150.752 242.184 151.776 242.824C152.544 243.251 153.461 243.763 154.528 244.36C155.595 244.915 156.768 245.512 158.048 246.152C158.517 246.323 158.987 246.536 159.456 246.792C159.968 247.048 160.48 247.283 160.992 247.496C161.589 247.752 162.187 248.029 162.784 248.328C163.424 248.627 164.064 248.925 164.704 249.224C165.216 249.437 165.707 249.672 166.176 249.928C166.688 250.141 167.179 250.355 167.648 250.568C168.203 250.824 168.715 251.08 169.184 251.336C169.653 251.592 170.123 251.827 170.592 252.04C170.976 252.211 171.339 252.381 171.68 252.552C172.064 252.723 172.427 252.893 172.768 253.064C173.152 253.235 173.536 253.405 173.92 253.576C178.784 255.923 182.773 257.885 185.888 259.464C189.003 261.043 191.413 262.472 193.12 263.752C194.827 264.989 196.021 266.248 196.704 267.528C197.387 268.765 197.728 270.216 197.728 271.88C197.728 273.331 197.216 274.632 196.192 275.784C195.168 276.936 193.717 277.512 191.84 277.512C191.029 277.512 190.112 277.363 189.088 277.064C188.107 276.808 186.784 276.253 185.12 275.4C183.499 274.547 181.323 273.288 178.592 271.624C175.861 269.96 172.363 267.741 168.096 264.968C163.872 262.195 158.645 258.739 152.416 254.6C150.112 253.064 148.32 252.509 147.04 252.936C145.803 253.32 144.992 254.515 144.608 256.52C144.053 259.208 143.648 261.96 143.392 264.776C143.136 267.549 142.816 269.832 142.432 271.624C142.005 273.459 141.472 274.867 140.832 275.848C140.192 276.787 139.189 277.256 137.824 277.256C136.288 277.256 135.2 276.701 134.56 275.592C133.92 274.483 133.472 272.819 133.216 270.6ZM138.976 267.272C137.824 267.272 136.928 266.995 136.288 266.44C135.691 265.843 135.392 264.712 135.392 263.048C135.392 261.64 135.648 260.68 136.16 260.168C136.715 259.656 137.568 259.464 138.72 259.592L138.976 267.272ZM135.136 247.048C134.368 246.963 133.749 246.707 133.28 246.28C132.811 245.853 132.576 244.915 132.576 243.464C132.576 241.843 132.811 240.797 133.28 240.328C133.792 239.859 134.709 239.667 136.032 239.752L135.136 247.048ZM181.472 251.656C179.424 251.656 177.803 251.123 176.608 250.056C175.413 248.989 174.816 247.56 174.816 245.768C174.816 243.336 175.349 241.544 176.416 240.392C177.483 239.197 179.04 238.6 181.088 238.6C183.349 238.6 185.056 239.133 186.208 240.2C187.403 241.224 188 242.824 188 245C188 247.091 187.445 248.733 186.336 249.928C185.269 251.08 183.648 251.656 181.472 251.656Z" fill="#1A2537"/>
</svg>
